<svg id="Layer_1" data-name="Layer 1" xmlns="http://www.w3.org/2000/svg" viewBox="0 0 256.01 240.07"><title>case light</title><path d="M155.12,261.87q-45.9,0-91.8,0c-12.77,0-24.46-3.26-31.11-15.11a40.07,40.07,0,0,1-5.28-18.36c-.46-41.08-.28-82.16-.21-123.25,0-16.36,7.5-27.87,22-32.7,5.06-1.69,10.79-1.61,16.24-1.83,6.8-.28,13.64-.21,20.45,0,4.28.14,5.9-1.45,5.93-5.79A184.78,184.78,0,0,1,92.38,42C94,29.63,102.53,22.13,115.22,22c26.27-.24,52.55-.31,78.82,0,15.29.2,23.79,9.49,24.17,25.24.14,5.81.14,11.64,0,17.46-.14,4.32,1.74,5.88,6,5.87,9.8,0,19.62,0,29.41.49,16.84.79,29,13.66,29,30.65q.1,64.12,0,128.24c0,16.93-11.74,29.92-28.69,31.31-9.75.8-19.6.51-29.4.54C201.35,261.91,178.24,261.87,155.12,261.87Zm-.16-14.1q48.14,0,96.27,0c9.42,0,17.39-7.57,17.46-16.83.14-20,0-39.92.05-59.87,0-4.17-1.69-5.89-6-5.86q-31.42.23-62.85,0c-4.35,0-6,1.7-6,5.88.11,6,.05,12,.07,18,0,10.82-5.14,16.53-16,16.72-15.29.28-30.61.6-45.88,0-10.28-.43-16.82-4.62-16.47-16.79.17-5.82-.12-11.65.1-17.46.17-4.74-1.69-6.36-6.49-6.31-20.45.22-40.9.09-61.35.1-6.09,0-6.91.82-6.92,6.93q0,28.44,0,56.88c0,11.1,7.56,18.67,18.73,18.68Q107.32,247.8,155,247.77Zm-.31-96.8H261.94c5.76,0,6.86-1,6.88-6.5.06-14.15.11-28.29,0-42.43-.09-10.2-7.48-17.72-17.64-17.73-64-.06-128.09,0-192.13-.08-11.12,0-18.43,10-18.2,18.35.39,13.79.1,27.61.11,41.42,0,6,1,7,6.91,7Zm.14-81c14.47,0,28.93-.11,43.4.06,4.53,0,6.29-1.64,6.06-6.19-.28-5.64-.06-11.31-.09-17,0-7.49-3.13-10.75-10.46-10.76q-38.91-.06-77.81,0c-6.93,0-10.22,3.45-10.27,10.51,0,5.65.25,11.32-.08,17-.29,4.87,1.68,6.48,6.36,6.43C126.2,69.88,140.49,70,154.79,70Zm.2,95.27c-6.82,0-13.63.1-20.44,0-3.45-.07-4.87,1.52-4.87,4.75,0,5.16.13,10.31-.06,15.46-.16,4.34,1.79,5.93,6,5.9,13-.1,25.92-.12,38.88,0,3.79,0,5.58-1.43,5.56-5.21,0-5.32-.09-10.64,0-16,.05-3.55-1.42-5.07-5.09-5C168.28,165.4,161.63,165.27,155,165.27Z" transform="translate(-26.62 -21.81)"/></svg>