<svg id="Layer_1" data-name="Layer 1" xmlns="http://www.w3.org/2000/svg" viewBox="0 0 284.16 252.76"><title>home but light</title><path d="M43,143.32c-3.45,2.77-6.63,6-10.42,8.18-3.41,2-7.69,4.27-11.22,3.78-8.62-1.2-11.75-12-5.39-18.09,7.17-6.92,15-13.16,22.6-19.63Q71.35,89.65,104.25,61.8c14.08-11.93,28.1-23.91,42.29-35.7,6.34-5.27,10.68-5.17,16.9.09q36,30.42,71.9,61,27.94,23.71,55.88,47.45c5.44,4.6,6.85,9.34,4.18,14.85-2.92,6-9.42,8.1-15,4.41-4.82-3.19-9.3-6.9-14.86-11.08-.14,2.51-.33,4.18-.33,5.85,0,28.51,0,57,0,85.52-.07,21.67-13.32,37.15-34.47,40.44a45,45,0,0,1-7,.35q-69,0-138,0c-25.42,0-41.42-16.07-41.46-41.57q-.06-42,0-84V144Zm112-94.25a6.17,6.17,0,0,0-1.29.54q-42.15,35.72-84.19,71.55a8.87,8.87,0,0,0-2.44,6c-.19,16.34-.11,32.67-.11,49,0,19.67-.09,39.33.05,59,.08,10.89,6.42,16.94,17.25,17,5.33,0,10.67,0,16,0,8.13,0,7.11.68,7.13-7.31,0-22.17-.06-44.34,0-66.5.06-13.49,7.85-21.2,21.07-21.21,16.84,0,33.72.71,50.51-.21,14.94-.81,23.43,10.32,23.14,23.09-.48,22-.14,44-.12,66,0,1.92.18,3.84.29,6.14h20.95c13.31,0,19.21-5.85,19.21-19.16,0-34.84-.06-69.67.11-104.51,0-4-1.35-6.4-4.25-8.82-15.47-12.93-30.81-26-46.19-39.06ZM178.5,180.34H130.62v71.4H178.5Z" transform="translate(-12.55 -22.2)"/></svg>